# xmcd CD database file
#
# Track frame offsets:
#	150
#	18845
#	36750
#	59187
#	79557
#	101150
#	123672
#	147490
#	167387
#	188372
#
# Disc length: 2755 seconds
#
# Revision: 0
# Processed by: cddbd v1.5.1PL2 Copyright (c) Steve Scherf et al.
# Submitted via: CDex 1.51
#
DISCID=800ac10a
DTITLE=Luc Cousineau - Jusqu'à ton monde
DYEAR=2002
DGENRE=Québécois
TTITLE0=quand tu le voudras
TTITLE1=la vie, la vie
TTITLE2=un souvenir
TTITLE3=femmes de vie
TTITLE4=je marche seul
TTITLE5=amis je lève mon verre
TTITLE6=on oublie
TTITLE7=quand rien ne va plus
TTITLE8=compte è rebours
TTITLE9=dans tes bras
EXTD=YEAR: 2002
EXTT0=
EXTT1=
EXTT2=
EXTT3=
EXTT4=
EXTT5=
EXTT6=
EXTT7=
EXTT8=
EXTT9=
PLAYORDER=
